<svg xmlns="http://www.w3.org/2000/svg" xmlns:xlink="http://www.w3.org/1999/xlink" width="500" zoomAndPan="magnify" viewBox="0 0 375 374.999991" height="500" preserveAspectRatio="xMidYMid meet" version="1.0"><defs><g/><clipPath id="adb3970b2e"><path d="M 167 124 L 207 124 L 207 178 L 167 178 Z M 167 124 " clip-rule="nonzero"/></clipPath><clipPath id="239d9c8f17"><path d="M 194.753906 124.605469 L 206.828125 131.890625 L 179.527344 177.128906 L 167.453125 169.839844 Z M 194.753906 124.605469 " clip-rule="nonzero"/></clipPath><clipPath id="d447f53614"><path d="M 194.753906 124.605469 L 206.828125 131.890625 L 179.539062 177.109375 L 167.464844 169.820312 Z M 194.753906 124.605469 " clip-rule="nonzero"/></clipPath><clipPath id="b992fe8024"><path d="M 168 131 L 196 131 L 196 159 L 168 159 Z M 168 131 " clip-rule="nonzero"/></clipPath><clipPath id="9e9dab53eb"><path d="M 178.839844 131.804688 L 195.296875 141.738281 L 185.171875 158.511719 L 168.714844 148.582031 Z M 178.839844 131.804688 " clip-rule="nonzero"/></clipPath><clipPath id="bed115676b"><path d="M 178.839844 131.804688 L 195.296875 141.738281 L 185.175781 158.5 L 168.722656 148.570312 Z M 178.839844 131.804688 " clip-rule="nonzero"/></clipPath><clipPath id="556d06b680"><path d="M 187 133 L 214 133 L 214 159 L 187 159 Z M 187 133 " clip-rule="nonzero"/></clipPath><clipPath id="416630dc95"><path d="M 197.007812 133.59375 L 213.503906 143.550781 L 204.464844 158.527344 L 187.96875 148.570312 Z M 197.007812 133.59375 " clip-rule="nonzero"/></clipPath><clipPath id="b78ddf4dc9"><path d="M 197.007812 133.59375 L 213.460938 143.527344 L 204.421875 158.5 L 187.96875 148.570312 Z M 197.007812 133.59375 " clip-rule="nonzero"/></clipPath></defs><g fill="#3d3b3a" fill-opacity="1"><g transform="translate(64.715514, 238.401168)"><g><path d="M 9.125 -2.65625 L 3.203125 -2.65625 L 2.078125 0 L 0.015625 0 L 5.203125 -11.734375 L 7.21875 -11.734375 L 12.359375 0 L 10.25 0 Z M 8.359375 -4.40625 L 6.15625 -9.625 L 3.9375 -4.40625 Z M 8.359375 -4.40625 "/></g></g></g><g fill="#3d3b3a" fill-opacity="1"><g transform="translate(83.802274, 238.401168)"><g><path d="M 9.125 -2.65625 L 3.203125 -2.65625 L 2.078125 0 L 0.015625 0 L 5.203125 -11.734375 L 7.21875 -11.734375 L 12.359375 0 L 10.25 0 Z M 8.359375 -4.40625 L 6.15625 -9.625 L 3.9375 -4.40625 Z M 8.359375 -4.40625 "/></g></g></g><g fill="#3d3b3a" fill-opacity="1"><g transform="translate(102.889034, 238.401168)"><g><path d="M 8.984375 0 L 6.84375 -3.546875 C 6.726562 -3.535156 6.546875 -3.53125 6.296875 -3.53125 L 3.515625 -3.53125 L 3.515625 0 L 1.546875 0 L 1.546875 -11.734375 L 6.296875 -11.734375 C 7.796875 -11.734375 8.957031 -11.382812 9.78125 -10.6875 C 10.613281 -9.988281 11.03125 -9.003906 11.03125 -7.734375 C 11.03125 -6.796875 10.820312 -6 10.40625 -5.34375 C 9.988281 -4.695312 9.382812 -4.222656 8.59375 -3.921875 L 11.234375 0 Z M 3.515625 -5.3125 L 6.296875 -5.3125 C 8.203125 -5.3125 9.15625 -6.097656 9.15625 -7.671875 C 9.15625 -9.191406 8.203125 -9.953125 6.296875 -9.953125 L 3.515625 -9.953125 Z M 3.515625 -5.3125 "/></g></g></g><g fill="#3d3b3a" fill-opacity="1"><g transform="translate(121.724227, 238.401168)"><g><path d="M 2.359375 -10.078125 C 3.554688 -11.210938 5.03125 -11.78125 6.78125 -11.78125 C 8.539062 -11.78125 10.019531 -11.210938 11.21875 -10.078125 C 12.414062 -8.941406 13.015625 -7.535156 13.015625 -5.859375 C 13.015625 -4.191406 12.414062 -2.785156 11.21875 -1.640625 C 10.019531 -0.492188 8.539062 0.078125 6.78125 0.078125 C 5.03125 0.078125 3.554688 -0.492188 2.359375 -1.640625 C 1.160156 -2.785156 0.5625 -4.191406 0.5625 -5.859375 C 0.5625 -7.535156 1.160156 -8.941406 2.359375 -10.078125 Z M 6.8125 -10.015625 C 5.644531 -10.015625 4.644531 -9.613281 3.8125 -8.8125 C 2.988281 -8.007812 2.578125 -7.023438 2.578125 -5.859375 C 2.578125 -4.703125 2.992188 -3.71875 3.828125 -2.90625 C 4.660156 -2.09375 5.648438 -1.6875 6.796875 -1.6875 C 7.953125 -1.6875 8.9375 -2.09375 9.75 -2.90625 C 10.570312 -3.71875 10.984375 -4.703125 10.984375 -5.859375 C 10.984375 -7.023438 10.570312 -8.007812 9.75 -8.8125 C 8.9375 -9.613281 7.957031 -10.015625 6.8125 -10.015625 Z M 6.8125 -10.015625 "/></g></g></g><g fill="#3d3b3a" fill-opacity="1"><g transform="translate(142.018529, 238.401168)"><g><path d="M 11.71875 0 L 9.78125 0 L 3.515625 -8.421875 L 3.515625 0 L 1.546875 0 L 1.546875 -11.734375 L 3.484375 -11.734375 L 9.78125 -3.296875 L 9.78125 -11.734375 L 11.71875 -11.734375 Z M 11.71875 0 "/></g></g></g><g fill="#3d3b3a" fill-opacity="1"><g transform="translate(162.010943, 238.401168)"><g/></g></g><g fill="#3d3b3a" fill-opacity="1"><g transform="translate(173.04742, 238.401168)"><g><path d="M 13.953125 0 L 12.125 0 L 12.109375 -8.765625 L 8.40625 -1.21875 L 7.109375 -1.21875 L 3.40625 -8.765625 L 3.40625 0 L 1.546875 0 L 1.546875 -11.734375 L 3.890625 -11.734375 L 7.765625 -3.9375 L 11.625 -11.734375 L 13.953125 -11.734375 Z M 13.953125 0 "/></g></g></g><g fill="#3d3b3a" fill-opacity="1"><g transform="translate(195.27043, 238.401168)"><g><path d="M 9.125 -2.65625 L 3.203125 -2.65625 L 2.078125 0 L 0.015625 0 L 5.203125 -11.734375 L 7.21875 -11.734375 L 12.359375 0 L 10.25 0 Z M 8.359375 -4.40625 L 6.15625 -9.625 L 3.9375 -4.40625 Z M 8.359375 -4.40625 "/></g></g></g><g fill="#3d3b3a" fill-opacity="1"><g transform="translate(214.357185, 238.401168)"><g><path d="M 8.984375 0 L 6.84375 -3.546875 C 6.726562 -3.535156 6.546875 -3.53125 6.296875 -3.53125 L 3.515625 -3.53125 L 3.515625 0 L 1.546875 0 L 1.546875 -11.734375 L 6.296875 -11.734375 C 7.796875 -11.734375 8.957031 -11.382812 9.78125 -10.6875 C 10.613281 -9.988281 11.03125 -9.003906 11.03125 -7.734375 C 11.03125 -6.796875 10.820312 -6 10.40625 -5.34375 C 9.988281 -4.695312 9.382812 -4.222656 8.59375 -3.921875 L 11.234375 0 Z M 3.515625 -5.3125 L 6.296875 -5.3125 C 8.203125 -5.3125 9.15625 -6.097656 9.15625 -7.671875 C 9.15625 -9.191406 8.203125 -9.953125 6.296875 -9.953125 L 3.515625 -9.953125 Z M 3.515625 -5.3125 "/></g></g></g><g fill="#3d3b3a" fill-opacity="1"><g transform="translate(233.192375, 238.401168)"><g><path d="M 9.5625 -9.953125 L 5.828125 -9.953125 L 5.828125 0 L 3.859375 0 L 3.859375 -9.953125 L 0.15625 -9.953125 L 0.15625 -11.734375 L 9.5625 -11.734375 Z M 9.5625 -9.953125 "/></g></g></g><g fill="#3d3b3a" fill-opacity="1"><g transform="translate(249.612471, 238.401168)"><g><path d="M 1.71875 -15.125 C 1.9375 -15.34375 2.207031 -15.453125 2.53125 -15.453125 C 2.851562 -15.453125 3.117188 -15.34375 3.328125 -15.125 C 3.546875 -14.90625 3.65625 -14.625 3.65625 -14.28125 C 3.65625 -13.945312 3.546875 -13.671875 3.328125 -13.453125 C 3.117188 -13.234375 2.851562 -13.125 2.53125 -13.125 C 2.207031 -13.125 1.9375 -13.234375 1.71875 -13.453125 C 1.507812 -13.671875 1.40625 -13.945312 1.40625 -14.28125 C 1.40625 -14.625 1.507812 -14.90625 1.71875 -15.125 Z M 3.515625 0 L 1.546875 0 L 1.546875 -11.734375 L 3.515625 -11.734375 Z M 3.515625 0 "/></g></g></g><g fill="#3d3b3a" fill-opacity="1"><g transform="translate(261.386882, 238.401168)"><g><path d="M 11.71875 0 L 9.78125 0 L 3.515625 -8.421875 L 3.515625 0 L 1.546875 0 L 1.546875 -11.734375 L 3.484375 -11.734375 L 9.78125 -3.296875 L 9.78125 -11.734375 L 11.71875 -11.734375 Z M 11.71875 0 "/></g></g></g><g fill="#3d3b3a" fill-opacity="1"><g transform="translate(281.379303, 238.401168)"><g><path d="M 9.921875 -9.953125 L 3.515625 -9.953125 L 3.515625 -6.796875 L 9.25 -6.796875 L 9.25 -5.015625 L 3.515625 -5.015625 L 3.515625 -1.78125 L 10.125 -1.78125 L 10.125 0 L 1.546875 0 L 1.546875 -11.734375 L 9.921875 -11.734375 Z M 9.921875 -9.953125 "/></g></g></g><g fill="#3d3b3a" fill-opacity="1"><g transform="translate(299.09081, 238.401168)"><g><path d="M 10.4375 -10.3125 L 3.296875 -1.78125 L 10.53125 -1.78125 L 10.53125 0 L 0.625 0 L 0.625 -1.421875 L 7.78125 -9.953125 L 0.84375 -9.953125 L 0.84375 -11.734375 L 10.4375 -11.734375 Z M 10.4375 -10.3125 "/></g></g></g><g fill="#3d3b3a" fill-opacity="1"><g transform="translate(150.677048, 149.928648)"><g><path d="M 51.03125 -0.96875 C 51.1875 -0.96875 51.265625 -0.804688 51.265625 -0.484375 C 51.265625 -0.160156 51.1875 0 51.03125 0 L 42.03125 0 C 40.15625 0 39.03125 -0.101562 38.65625 -0.3125 C 38.28125 -0.53125 37.300781 -1.765625 35.71875 -4.015625 C 34.132812 -6.265625 32.21875 -8.8125 29.96875 -11.65625 L 17.203125 -27.484375 L 14.390625 -24.75 L 14.390625 -6.515625 C 14.390625 -4.847656 14.5625 -3.640625 14.90625 -2.890625 C 15.25 -2.140625 15.90625 -1.628906 16.875 -1.359375 C 17.84375 -1.097656 19.394531 -0.96875 21.53125 -0.96875 C 21.644531 -0.96875 21.703125 -0.804688 21.703125 -0.484375 C 21.703125 -0.160156 21.644531 0 21.53125 0 C 19.925781 0 18.640625 -0.0234375 17.671875 -0.078125 L 12.21875 -0.15625 L 6.90625 -0.078125 C 5.945312 -0.0234375 4.609375 0 2.890625 0 C 2.785156 0 2.734375 -0.160156 2.734375 -0.484375 C 2.734375 -0.804688 2.785156 -0.96875 2.890625 -0.96875 C 4.984375 -0.96875 6.523438 -1.097656 7.515625 -1.359375 C 8.503906 -1.628906 9.1875 -2.148438 9.5625 -2.921875 C 9.9375 -3.703125 10.125 -4.898438 10.125 -6.515625 L 10.125 -43.71875 C 10.125 -45.320312 9.945312 -46.5 9.59375 -47.25 C 9.25 -48 8.582031 -48.519531 7.59375 -48.8125 C 6.601562 -49.113281 5.0625 -49.265625 2.96875 -49.265625 C 2.863281 -49.265625 2.8125 -49.421875 2.8125 -49.734375 C 2.8125 -50.054688 2.863281 -50.21875 2.96875 -50.21875 L 6.90625 -50.140625 C 9.15625 -50.035156 10.925781 -49.984375 12.21875 -49.984375 C 13.664062 -49.984375 15.515625 -50.035156 17.765625 -50.140625 L 21.53125 -50.21875 C 21.644531 -50.21875 21.703125 -50.054688 21.703125 -49.734375 C 21.703125 -49.421875 21.644531 -49.265625 21.53125 -49.265625 C 19.445312 -49.265625 17.90625 -49.101562 16.90625 -48.78125 C 15.914062 -48.457031 15.25 -47.90625 14.90625 -47.125 C 14.5625 -46.351562 14.390625 -45.164062 14.390625 -43.5625 L 14.390625 -26.59375 L 32.0625 -44.203125 C 33.882812 -46.023438 34.796875 -47.28125 34.796875 -47.96875 C 34.796875 -48.457031 34.429688 -48.796875 33.703125 -48.984375 C 32.984375 -49.171875 31.796875 -49.265625 30.140625 -49.265625 C 30.023438 -49.265625 29.96875 -49.421875 29.96875 -49.734375 C 29.96875 -50.054688 30.023438 -50.21875 30.140625 -50.21875 L 33.515625 -50.140625 C 35.546875 -50.035156 37.445312 -49.984375 39.21875 -49.984375 C 40.875 -49.984375 42.613281 -50.035156 44.4375 -50.140625 L 47.25 -50.21875 C 47.414062 -50.21875 47.5 -50.054688 47.5 -49.734375 C 47.5 -49.421875 47.414062 -49.265625 47.25 -49.265625 C 45.050781 -49.265625 42.785156 -48.847656 40.453125 -48.015625 C 38.128906 -47.179688 35.945312 -45.75 33.90625 -43.71875 L 20.25 -30.375 L 31.734375 -15.90625 C 35.804688 -10.820312 38.914062 -7.234375 41.0625 -5.140625 C 43.207031 -3.054688 44.84375 -1.835938 45.96875 -1.484375 C 47.09375 -1.140625 48.78125 -0.96875 51.03125 -0.96875 Z M 51.03125 -0.96875 "/></g></g></g><g fill="#3d3b3a" fill-opacity="1"><g transform="translate(187.139618, 189.169223)"><g><path d="M 11.09375 -40.5 C 11.09375 -38.351562 11.597656 -36.503906 12.609375 -34.953125 C 13.628906 -33.398438 14.875 -32.097656 16.34375 -31.046875 C 17.820312 -30.003906 19.875 -28.707031 22.5 -27.15625 C 25.28125 -25.5 27.4375 -24.117188 28.96875 -23.015625 C 30.5 -21.921875 31.8125 -20.515625 32.90625 -18.796875 C 34 -17.085938 34.546875 -15.023438 34.546875 -12.609375 C 34.546875 -10.097656 33.929688 -7.8125 32.703125 -5.75 C 31.472656 -3.6875 29.640625 -2.050781 27.203125 -0.84375 C 24.765625 0.363281 21.773438 0.96875 18.234375 0.96875 C 16.359375 0.96875 14.578125 0.765625 12.890625 0.359375 C 11.203125 -0.0351562 9.34375 -0.742188 7.3125 -1.765625 C 7.039062 -1.929688 6.863281 -2.117188 6.78125 -2.328125 C 6.707031 -2.546875 6.644531 -2.867188 6.59375 -3.296875 L 5.390625 -13.734375 L 5.390625 -13.828125 C 5.390625 -14.035156 5.519531 -14.148438 5.78125 -14.171875 C 6.050781 -14.203125 6.210938 -14.113281 6.265625 -13.90625 C 6.804688 -10.207031 8.226562 -6.988281 10.53125 -4.25 C 12.832031 -1.519531 15.992188 -0.15625 20.015625 -0.15625 C 22.847656 -0.15625 25.242188 -0.929688 27.203125 -2.484375 C 29.160156 -4.046875 30.140625 -6.484375 30.140625 -9.796875 C 30.140625 -12.210938 29.601562 -14.289062 28.53125 -16.03125 C 27.457031 -17.769531 26.15625 -19.210938 24.625 -20.359375 C 23.101562 -21.515625 21.03125 -22.867188 18.40625 -24.421875 C 15.832031 -25.921875 13.804688 -27.234375 12.328125 -28.359375 C 10.859375 -29.484375 9.597656 -30.890625 8.546875 -32.578125 C 7.503906 -34.265625 6.984375 -36.289062 6.984375 -38.65625 C 6.984375 -41.332031 7.664062 -43.609375 9.03125 -45.484375 C 10.40625 -47.359375 12.1875 -48.765625 14.375 -49.703125 C 16.570312 -50.640625 18.929688 -51.109375 21.453125 -51.109375 C 24.398438 -51.109375 27.453125 -50.46875 30.609375 -49.1875 C 31.421875 -48.863281 31.828125 -48.40625 31.828125 -47.8125 L 32.546875 -39.296875 C 32.546875 -39.078125 32.394531 -38.96875 32.09375 -38.96875 C 31.800781 -38.96875 31.628906 -39.078125 31.578125 -39.296875 C 31.367188 -42.078125 30.328125 -44.566406 28.453125 -46.765625 C 26.578125 -48.960938 23.894531 -50.0625 20.40625 -50.0625 C 17.195312 -50.0625 14.84375 -49.125 13.34375 -47.25 C 11.84375 -45.375 11.09375 -43.125 11.09375 -40.5 Z M 11.09375 -40.5 "/></g></g></g><g clip-path="url(#adb3970b2e)"><g clip-path="url(#239d9c8f17)"><g clip-path="url(#d447f53614)"><path fill="#ffffff" d="M 194.753906 124.605469 L 206.828125 131.890625 L 179.527344 177.128906 L 167.453125 169.839844 Z M 194.753906 124.605469 " fill-opacity="1" fill-rule="nonzero"/></g></g></g><g clip-path="url(#b992fe8024)"><g clip-path="url(#9e9dab53eb)"><g clip-path="url(#bed115676b)"><path fill="#ffffff" d="M 178.839844 131.804688 L 195.296875 141.738281 L 185.171875 158.511719 L 168.714844 148.582031 Z M 178.839844 131.804688 " fill-opacity="1" fill-rule="nonzero"/></g></g></g><g clip-path="url(#556d06b680)"><g clip-path="url(#416630dc95)"><g clip-path="url(#b78ddf4dc9)"><path fill="#ffffff" d="M 197.007812 133.59375 L 213.445312 143.515625 L 204.40625 158.492188 L 187.96875 148.570312 Z M 197.007812 133.59375 " fill-opacity="1" fill-rule="nonzero"/></g></g></g><path stroke-linecap="butt" transform="matrix(0.431053, -0.613753, 0.613753, 0.431053, 162.46394, 183.096742)" fill="none" stroke-linejoin="miter" d="M 0.000822678 1.000125 L 116.884887 0.999427 " stroke="#3d3b3a" stroke-width="2" stroke-opacity="1" stroke-miterlimit="4"/><g fill="#3d3b3a" fill-opacity="1"><g transform="translate(120.135485, 262.357212)"><g><path d="M 3.734375 -4.96875 C 3.953125 -4.96875 4.160156 -4.882812 4.359375 -4.71875 C 4.554688 -4.5625 4.640625 -4.382812 4.609375 -4.1875 C 4.585938 -4.0625 4.523438 -3.941406 4.421875 -3.828125 C 4.328125 -3.722656 4.203125 -3.671875 4.046875 -3.671875 C 3.898438 -3.671875 3.738281 -3.742188 3.5625 -3.890625 C 3.5 -3.929688 3.4375 -3.96875 3.375 -4 C 3.320312 -4.03125 3.265625 -4.046875 3.203125 -4.046875 C 3.066406 -4.046875 2.890625 -3.820312 2.671875 -3.375 C 2.460938 -2.9375 2.265625 -2.410156 2.078125 -1.796875 C 1.890625 -1.179688 1.753906 -0.632812 1.671875 -0.15625 C 1.648438 -0.0703125 1.582031 -0.0078125 1.46875 0.03125 C 1.351562 0.0703125 1.1875 0.09375 0.96875 0.09375 C 0.6875 0.09375 0.546875 0.0625 0.546875 0 C 0.554688 -0.0625 0.582031 -0.1875 0.625 -0.375 C 0.675781 -0.570312 0.71875 -0.757812 0.75 -0.9375 L 1.265625 -3.734375 C 1.285156 -3.867188 1.296875 -3.957031 1.296875 -4 C 1.296875 -4.238281 1.21875 -4.359375 1.0625 -4.359375 C 0.894531 -4.359375 0.660156 -4.1875 0.359375 -3.84375 C 0.347656 -3.84375 0.332031 -3.84375 0.3125 -3.84375 C 0.28125 -3.84375 0.253906 -3.851562 0.234375 -3.875 C 0.222656 -3.90625 0.226562 -3.9375 0.25 -3.96875 C 0.550781 -4.3125 0.820312 -4.5625 1.0625 -4.71875 C 1.300781 -4.882812 1.539062 -4.96875 1.78125 -4.96875 C 1.988281 -4.96875 2.140625 -4.910156 2.234375 -4.796875 C 2.328125 -4.679688 2.375 -4.515625 2.375 -4.296875 C 2.375 -4.171875 2.363281 -4.035156 2.34375 -3.890625 L 2.09375 -2.5 C 2.582031 -4.144531 3.128906 -4.96875 3.734375 -4.96875 Z M 3.734375 -4.96875 "/></g></g></g><g fill="#3d3b3a" fill-opacity="1"><g transform="translate(128.384593, 262.357212)"><g><path d="M 3.390625 -5.015625 C 3.710938 -5.015625 3.960938 -4.957031 4.140625 -4.84375 C 4.316406 -4.738281 4.40625 -4.59375 4.40625 -4.40625 C 4.40625 -4.03125 4.125 -3.675781 3.5625 -3.34375 C 3.007812 -3.007812 2.335938 -2.765625 1.546875 -2.609375 C 1.523438 -2.429688 1.515625 -2.253906 1.515625 -2.078125 C 1.515625 -1.578125 1.617188 -1.171875 1.828125 -0.859375 C 2.035156 -0.554688 2.34375 -0.40625 2.75 -0.40625 C 2.925781 -0.40625 3.117188 -0.4375 3.328125 -0.5 C 3.535156 -0.5625 3.722656 -0.660156 3.890625 -0.796875 L 3.90625 -0.796875 C 3.925781 -0.796875 3.945312 -0.78125 3.96875 -0.75 C 3.988281 -0.726562 3.988281 -0.707031 3.96875 -0.6875 C 3.664062 -0.394531 3.347656 -0.179688 3.015625 -0.046875 C 2.679688 0.0859375 2.347656 0.15625 2.015625 0.15625 C 1.429688 0.15625 0.992188 -0.0195312 0.703125 -0.375 C 0.421875 -0.726562 0.28125 -1.171875 0.28125 -1.703125 C 0.28125 -1.890625 0.300781 -2.097656 0.34375 -2.328125 C 0.425781 -2.773438 0.609375 -3.203125 0.890625 -3.609375 C 1.179688 -4.023438 1.546875 -4.363281 1.984375 -4.625 C 2.421875 -4.882812 2.890625 -5.015625 3.390625 -5.015625 Z M 3.125 -4.078125 C 3.132812 -4.109375 3.140625 -4.15625 3.140625 -4.21875 C 3.140625 -4.363281 3.101562 -4.472656 3.03125 -4.546875 C 2.96875 -4.628906 2.867188 -4.671875 2.734375 -4.671875 C 2.472656 -4.671875 2.238281 -4.5 2.03125 -4.15625 C 1.820312 -3.8125 1.671875 -3.363281 1.578125 -2.8125 C 2.535156 -3.0625 3.050781 -3.484375 3.125 -4.078125 Z M 3.125 -4.078125 "/></g></g></g><g fill="#3d3b3a" fill-opacity="1"><g transform="translate(136.646264, 262.357212)"><g><path d="M 5.21875 -0.96875 C 5.226562 -0.976562 5.238281 -0.984375 5.25 -0.984375 C 5.28125 -0.984375 5.300781 -0.96875 5.3125 -0.9375 C 5.332031 -0.90625 5.335938 -0.882812 5.328125 -0.875 C 4.785156 -0.21875 4.3125 0.109375 3.90625 0.109375 C 3.6875 0.109375 3.523438 0.0507812 3.421875 -0.0625 C 3.328125 -0.1875 3.28125 -0.378906 3.28125 -0.640625 C 3.28125 -0.785156 3.296875 -0.945312 3.328125 -1.125 L 3.46875 -1.96875 C 3.15625 -1.300781 2.773438 -0.78125 2.328125 -0.40625 C 1.890625 -0.03125 1.460938 0.15625 1.046875 0.15625 C 0.785156 0.15625 0.578125 0.078125 0.421875 -0.078125 C 0.273438 -0.234375 0.203125 -0.472656 0.203125 -0.796875 C 0.203125 -1.359375 0.390625 -1.972656 0.765625 -2.640625 C 1.140625 -3.304688 1.597656 -3.867188 2.140625 -4.328125 C 2.691406 -4.785156 3.210938 -5.015625 3.703125 -5.015625 C 3.847656 -5.015625 4.003906 -4.988281 4.171875 -4.9375 C 4.335938 -4.882812 4.476562 -4.800781 4.59375 -4.6875 C 4.75 -4.8125 4.878906 -4.957031 4.984375 -5.125 C 4.992188 -5.132812 5.007812 -5.140625 5.03125 -5.140625 C 5.050781 -5.140625 5.070312 -5.128906 5.09375 -5.109375 C 5.125 -5.097656 5.132812 -5.085938 5.125 -5.078125 L 4.40625 -1.125 C 4.375 -1.007812 4.359375 -0.910156 4.359375 -0.828125 C 4.359375 -0.628906 4.421875 -0.53125 4.546875 -0.53125 C 4.703125 -0.53125 4.925781 -0.675781 5.21875 -0.96875 Z M 1.84375 -0.75 C 2.09375 -0.75 2.347656 -0.878906 2.609375 -1.140625 C 2.878906 -1.410156 3.113281 -1.734375 3.3125 -2.109375 C 3.507812 -2.492188 3.640625 -2.851562 3.703125 -3.1875 C 3.722656 -3.320312 3.734375 -3.445312 3.734375 -3.5625 C 3.734375 -3.832031 3.671875 -4.039062 3.546875 -4.1875 C 3.429688 -4.332031 3.265625 -4.40625 3.046875 -4.40625 C 2.660156 -4.40625 2.316406 -4.195312 2.015625 -3.78125 C 1.722656 -3.363281 1.515625 -2.820312 1.390625 -2.15625 C 1.347656 -1.894531 1.328125 -1.695312 1.328125 -1.5625 C 1.328125 -1.28125 1.375 -1.070312 1.46875 -0.9375 C 1.5625 -0.8125 1.6875 -0.75 1.84375 -0.75 Z M 1.84375 -0.75 "/></g></g></g><g fill="#3d3b3a" fill-opacity="1"><g transform="translate(146.001462, 262.357212)"><g><path d="M 1.1875 0.109375 C 0.78125 0.109375 0.578125 -0.128906 0.578125 -0.609375 C 0.578125 -0.773438 0.59375 -0.945312 0.625 -1.125 L 1.78125 -7.40625 C 1.8125 -7.570312 1.828125 -7.710938 1.828125 -7.828125 C 1.828125 -8.066406 1.742188 -8.1875 1.578125 -8.1875 C 1.484375 -8.1875 1.3125 -8.128906 1.0625 -8.015625 L 1.046875 -8.015625 C 1.003906 -8.015625 0.976562 -8.035156 0.96875 -8.078125 C 0.957031 -8.128906 0.96875 -8.15625 1 -8.15625 L 2.953125 -9.125 L 2.984375 -9.125 C 3.015625 -9.125 3.046875 -9.109375 3.078125 -9.078125 C 3.109375 -9.054688 3.117188 -9.035156 3.109375 -9.015625 L 1.703125 -1.125 C 1.671875 -1 1.65625 -0.894531 1.65625 -0.8125 C 1.65625 -0.625 1.71875 -0.53125 1.84375 -0.53125 C 1.925781 -0.53125 2.019531 -0.566406 2.125 -0.640625 C 2.238281 -0.710938 2.367188 -0.820312 2.515625 -0.96875 C 2.535156 -0.988281 2.550781 -1 2.5625 -1 C 2.59375 -1 2.613281 -0.984375 2.625 -0.953125 C 2.644531 -0.921875 2.640625 -0.894531 2.609375 -0.875 C 2.328125 -0.53125 2.078125 -0.28125 1.859375 -0.125 C 1.640625 0.03125 1.414062 0.109375 1.1875 0.109375 Z M 1.1875 0.109375 "/></g></g></g><g fill="#3d3b3a" fill-opacity="1"><g transform="translate(152.88052, 262.357212)"><g/></g></g><g fill="#3d3b3a" fill-opacity="1"><g transform="translate(159.596179, 262.357212)"><g><path d="M 3.390625 -5.015625 C 3.710938 -5.015625 3.960938 -4.957031 4.140625 -4.84375 C 4.316406 -4.738281 4.40625 -4.59375 4.40625 -4.40625 C 4.40625 -4.03125 4.125 -3.675781 3.5625 -3.34375 C 3.007812 -3.007812 2.335938 -2.765625 1.546875 -2.609375 C 1.523438 -2.429688 1.515625 -2.253906 1.515625 -2.078125 C 1.515625 -1.578125 1.617188 -1.171875 1.828125 -0.859375 C 2.035156 -0.554688 2.34375 -0.40625 2.75 -0.40625 C 2.925781 -0.40625 3.117188 -0.4375 3.328125 -0.5 C 3.535156 -0.5625 3.722656 -0.660156 3.890625 -0.796875 L 3.90625 -0.796875 C 3.925781 -0.796875 3.945312 -0.78125 3.96875 -0.75 C 3.988281 -0.726562 3.988281 -0.707031 3.96875 -0.6875 C 3.664062 -0.394531 3.347656 -0.179688 3.015625 -0.046875 C 2.679688 0.0859375 2.347656 0.15625 2.015625 0.15625 C 1.429688 0.15625 0.992188 -0.0195312 0.703125 -0.375 C 0.421875 -0.726562 0.28125 -1.171875 0.28125 -1.703125 C 0.28125 -1.890625 0.300781 -2.097656 0.34375 -2.328125 C 0.425781 -2.773438 0.609375 -3.203125 0.890625 -3.609375 C 1.179688 -4.023438 1.546875 -4.363281 1.984375 -4.625 C 2.421875 -4.882812 2.890625 -5.015625 3.390625 -5.015625 Z M 3.125 -4.078125 C 3.132812 -4.109375 3.140625 -4.15625 3.140625 -4.21875 C 3.140625 -4.363281 3.101562 -4.472656 3.03125 -4.546875 C 2.96875 -4.628906 2.867188 -4.671875 2.734375 -4.671875 C 2.472656 -4.671875 2.238281 -4.5 2.03125 -4.15625 C 1.820312 -3.8125 1.671875 -3.363281 1.578125 -2.8125 C 2.535156 -3.0625 3.050781 -3.484375 3.125 -4.078125 Z M 3.125 -4.078125 "/></g></g></g><g fill="#3d3b3a" fill-opacity="1"><g transform="translate(167.857851, 262.357212)"><g><path d="M 1.359375 0.140625 C 0.992188 0.140625 0.6875 0.0625 0.4375 -0.09375 C 0.1875 -0.257812 0.0625 -0.453125 0.0625 -0.671875 C 0.0625 -0.867188 0.113281 -1.019531 0.21875 -1.125 C 0.332031 -1.226562 0.46875 -1.28125 0.625 -1.28125 C 0.769531 -1.28125 0.882812 -1.242188 0.96875 -1.171875 C 1.050781 -1.097656 1.144531 -0.976562 1.25 -0.8125 C 1.363281 -0.632812 1.46875 -0.503906 1.5625 -0.421875 C 1.65625 -0.335938 1.789062 -0.296875 1.96875 -0.296875 C 2.101562 -0.296875 2.207031 -0.332031 2.28125 -0.40625 C 2.351562 -0.488281 2.398438 -0.617188 2.421875 -0.796875 C 2.429688 -0.828125 2.4375 -0.875 2.4375 -0.9375 C 2.4375 -1.1875 2.363281 -1.398438 2.21875 -1.578125 C 2.082031 -1.753906 1.863281 -1.957031 1.5625 -2.1875 C 1.257812 -2.4375 1.035156 -2.648438 0.890625 -2.828125 C 0.742188 -3.015625 0.671875 -3.234375 0.671875 -3.484375 C 0.671875 -3.535156 0.675781 -3.609375 0.6875 -3.703125 C 0.726562 -3.921875 0.832031 -4.125 1 -4.3125 C 1.175781 -4.507812 1.398438 -4.671875 1.671875 -4.796875 C 1.953125 -4.921875 2.25 -4.984375 2.5625 -4.984375 C 2.96875 -4.984375 3.28125 -4.914062 3.5 -4.78125 C 3.726562 -4.644531 3.828125 -4.457031 3.796875 -4.21875 C 3.773438 -4.0625 3.707031 -3.9375 3.59375 -3.84375 C 3.476562 -3.75 3.359375 -3.703125 3.234375 -3.703125 C 3.054688 -3.703125 2.925781 -3.742188 2.84375 -3.828125 C 2.757812 -3.910156 2.679688 -4.023438 2.609375 -4.171875 C 2.535156 -4.328125 2.460938 -4.441406 2.390625 -4.515625 C 2.316406 -4.585938 2.195312 -4.625 2.03125 -4.625 C 1.894531 -4.625 1.785156 -4.582031 1.703125 -4.5 C 1.628906 -4.425781 1.585938 -4.335938 1.578125 -4.234375 C 1.566406 -4.203125 1.5625 -4.15625 1.5625 -4.09375 C 1.5625 -3.875 1.628906 -3.675781 1.765625 -3.5 C 1.910156 -3.332031 2.128906 -3.132812 2.421875 -2.90625 C 2.742188 -2.644531 2.976562 -2.421875 3.125 -2.234375 C 3.28125 -2.046875 3.359375 -1.828125 3.359375 -1.578125 C 3.359375 -1.535156 3.347656 -1.460938 3.328125 -1.359375 C 3.285156 -1.128906 3.175781 -0.898438 3 -0.671875 C 2.820312 -0.441406 2.585938 -0.25 2.296875 -0.09375 C 2.015625 0.0625 1.703125 0.140625 1.359375 0.140625 Z M 1.359375 0.140625 "/></g></g></g><g fill="#3d3b3a" fill-opacity="1"><g transform="translate(175.604189, 262.357212)"><g><path d="M 3.828125 -4.859375 C 3.878906 -4.859375 3.90625 -4.816406 3.90625 -4.734375 C 3.90625 -4.671875 3.859375 -4.570312 3.765625 -4.4375 C 3.671875 -4.300781 3.582031 -4.234375 3.5 -4.234375 C 3.46875 -4.234375 3.328125 -4.253906 3.078125 -4.296875 C 2.835938 -4.335938 2.5625 -4.367188 2.25 -4.390625 L 1.71875 -1.390625 C 1.707031 -1.253906 1.703125 -1.164062 1.703125 -1.125 C 1.703125 -0.914062 1.753906 -0.765625 1.859375 -0.671875 C 1.960938 -0.585938 2.125 -0.546875 2.34375 -0.546875 C 2.65625 -0.546875 3.003906 -0.695312 3.390625 -1 L 3.40625 -1 C 3.4375 -1 3.460938 -0.988281 3.484375 -0.96875 C 3.515625 -0.945312 3.519531 -0.921875 3.5 -0.890625 C 3.113281 -0.523438 2.769531 -0.257812 2.46875 -0.09375 C 2.175781 0.0703125 1.878906 0.15625 1.578125 0.15625 C 0.898438 0.15625 0.5625 -0.148438 0.5625 -0.765625 C 0.5625 -0.890625 0.578125 -1.03125 0.609375 -1.1875 L 1.09375 -3.84375 C 1.113281 -3.988281 1.125 -4.109375 1.125 -4.203125 C 1.125 -4.328125 1.09375 -4.410156 1.03125 -4.453125 C 0.96875 -4.492188 0.847656 -4.515625 0.671875 -4.515625 C 0.640625 -4.515625 0.625 -4.546875 0.625 -4.609375 C 0.625 -4.679688 0.640625 -4.71875 0.671875 -4.71875 C 1.335938 -4.71875 1.867188 -5.085938 2.265625 -5.828125 C 2.285156 -5.847656 2.316406 -5.859375 2.359375 -5.859375 C 2.398438 -5.859375 2.4375 -5.847656 2.46875 -5.828125 C 2.5 -5.816406 2.507812 -5.800781 2.5 -5.78125 L 2.3125 -4.75 C 2.550781 -4.757812 2.753906 -4.769531 2.921875 -4.78125 C 3.085938 -4.800781 3.226562 -4.8125 3.34375 -4.8125 C 3.5625 -4.84375 3.722656 -4.859375 3.828125 -4.859375 Z M 3.828125 -4.859375 "/></g></g></g><g fill="#3d3b3a" fill-opacity="1"><g transform="translate(183.161992, 262.357212)"><g><path d="M 5.21875 -0.96875 C 5.226562 -0.976562 5.238281 -0.984375 5.25 -0.984375 C 5.28125 -0.984375 5.300781 -0.96875 5.3125 -0.9375 C 5.332031 -0.90625 5.335938 -0.882812 5.328125 -0.875 C 4.785156 -0.21875 4.3125 0.109375 3.90625 0.109375 C 3.6875 0.109375 3.523438 0.0507812 3.421875 -0.0625 C 3.328125 -0.1875 3.28125 -0.378906 3.28125 -0.640625 C 3.28125 -0.785156 3.296875 -0.945312 3.328125 -1.125 L 3.46875 -1.96875 C 3.15625 -1.300781 2.773438 -0.78125 2.328125 -0.40625 C 1.890625 -0.03125 1.460938 0.15625 1.046875 0.15625 C 0.785156 0.15625 0.578125 0.078125 0.421875 -0.078125 C 0.273438 -0.234375 0.203125 -0.472656 0.203125 -0.796875 C 0.203125 -1.359375 0.390625 -1.972656 0.765625 -2.640625 C 1.140625 -3.304688 1.597656 -3.867188 2.140625 -4.328125 C 2.691406 -4.785156 3.210938 -5.015625 3.703125 -5.015625 C 3.847656 -5.015625 4.003906 -4.988281 4.171875 -4.9375 C 4.335938 -4.882812 4.476562 -4.800781 4.59375 -4.6875 C 4.75 -4.8125 4.878906 -4.957031 4.984375 -5.125 C 4.992188 -5.132812 5.007812 -5.140625 5.03125 -5.140625 C 5.050781 -5.140625 5.070312 -5.128906 5.09375 -5.109375 C 5.125 -5.097656 5.132812 -5.085938 5.125 -5.078125 L 4.40625 -1.125 C 4.375 -1.007812 4.359375 -0.910156 4.359375 -0.828125 C 4.359375 -0.628906 4.421875 -0.53125 4.546875 -0.53125 C 4.703125 -0.53125 4.925781 -0.675781 5.21875 -0.96875 Z M 1.84375 -0.75 C 2.09375 -0.75 2.347656 -0.878906 2.609375 -1.140625 C 2.878906 -1.410156 3.113281 -1.734375 3.3125 -2.109375 C 3.507812 -2.492188 3.640625 -2.851562 3.703125 -3.1875 C 3.722656 -3.320312 3.734375 -3.445312 3.734375 -3.5625 C 3.734375 -3.832031 3.671875 -4.039062 3.546875 -4.1875 C 3.429688 -4.332031 3.265625 -4.40625 3.046875 -4.40625 C 2.660156 -4.40625 2.316406 -4.195312 2.015625 -3.78125 C 1.722656 -3.363281 1.515625 -2.820312 1.390625 -2.15625 C 1.347656 -1.894531 1.328125 -1.695312 1.328125 -1.5625 C 1.328125 -1.28125 1.375 -1.070312 1.46875 -0.9375 C 1.5625 -0.8125 1.6875 -0.75 1.84375 -0.75 Z M 1.84375 -0.75 "/></g></g></g><g fill="#3d3b3a" fill-opacity="1"><g transform="translate(192.517193, 262.357212)"><g><path d="M 3.828125 -4.859375 C 3.878906 -4.859375 3.90625 -4.816406 3.90625 -4.734375 C 3.90625 -4.671875 3.859375 -4.570312 3.765625 -4.4375 C 3.671875 -4.300781 3.582031 -4.234375 3.5 -4.234375 C 3.46875 -4.234375 3.328125 -4.253906 3.078125 -4.296875 C 2.835938 -4.335938 2.5625 -4.367188 2.25 -4.390625 L 1.71875 -1.390625 C 1.707031 -1.253906 1.703125 -1.164062 1.703125 -1.125 C 1.703125 -0.914062 1.753906 -0.765625 1.859375 -0.671875 C 1.960938 -0.585938 2.125 -0.546875 2.34375 -0.546875 C 2.65625 -0.546875 3.003906 -0.695312 3.390625 -1 L 3.40625 -1 C 3.4375 -1 3.460938 -0.988281 3.484375 -0.96875 C 3.515625 -0.945312 3.519531 -0.921875 3.5 -0.890625 C 3.113281 -0.523438 2.769531 -0.257812 2.46875 -0.09375 C 2.175781 0.0703125 1.878906 0.15625 1.578125 0.15625 C 0.898438 0.15625 0.5625 -0.148438 0.5625 -0.765625 C 0.5625 -0.890625 0.578125 -1.03125 0.609375 -1.1875 L 1.09375 -3.84375 C 1.113281 -3.988281 1.125 -4.109375 1.125 -4.203125 C 1.125 -4.328125 1.09375 -4.410156 1.03125 -4.453125 C 0.96875 -4.492188 0.847656 -4.515625 0.671875 -4.515625 C 0.640625 -4.515625 0.625 -4.546875 0.625 -4.609375 C 0.625 -4.679688 0.640625 -4.71875 0.671875 -4.71875 C 1.335938 -4.71875 1.867188 -5.085938 2.265625 -5.828125 C 2.285156 -5.847656 2.316406 -5.859375 2.359375 -5.859375 C 2.398438 -5.859375 2.4375 -5.847656 2.46875 -5.828125 C 2.5 -5.816406 2.507812 -5.800781 2.5 -5.78125 L 2.3125 -4.75 C 2.550781 -4.757812 2.753906 -4.769531 2.921875 -4.78125 C 3.085938 -4.800781 3.226562 -4.8125 3.34375 -4.8125 C 3.5625 -4.84375 3.722656 -4.859375 3.828125 -4.859375 Z M 3.828125 -4.859375 "/></g></g></g><g fill="#3d3b3a" fill-opacity="1"><g transform="translate(200.074995, 262.357212)"><g><path d="M 3.390625 -5.015625 C 3.710938 -5.015625 3.960938 -4.957031 4.140625 -4.84375 C 4.316406 -4.738281 4.40625 -4.59375 4.40625 -4.40625 C 4.40625 -4.03125 4.125 -3.675781 3.5625 -3.34375 C 3.007812 -3.007812 2.335938 -2.765625 1.546875 -2.609375 C 1.523438 -2.429688 1.515625 -2.253906 1.515625 -2.078125 C 1.515625 -1.578125 1.617188 -1.171875 1.828125 -0.859375 C 2.035156 -0.554688 2.34375 -0.40625 2.75 -0.40625 C 2.925781 -0.40625 3.117188 -0.4375 3.328125 -0.5 C 3.535156 -0.5625 3.722656 -0.660156 3.890625 -0.796875 L 3.90625 -0.796875 C 3.925781 -0.796875 3.945312 -0.78125 3.96875 -0.75 C 3.988281 -0.726562 3.988281 -0.707031 3.96875 -0.6875 C 3.664062 -0.394531 3.347656 -0.179688 3.015625 -0.046875 C 2.679688 0.0859375 2.347656 0.15625 2.015625 0.15625 C 1.429688 0.15625 0.992188 -0.0195312 0.703125 -0.375 C 0.421875 -0.726562 0.28125 -1.171875 0.28125 -1.703125 C 0.28125 -1.890625 0.300781 -2.097656 0.34375 -2.328125 C 0.425781 -2.773438 0.609375 -3.203125 0.890625 -3.609375 C 1.179688 -4.023438 1.546875 -4.363281 1.984375 -4.625 C 2.421875 -4.882812 2.890625 -5.015625 3.390625 -5.015625 Z M 3.125 -4.078125 C 3.132812 -4.109375 3.140625 -4.15625 3.140625 -4.21875 C 3.140625 -4.363281 3.101562 -4.472656 3.03125 -4.546875 C 2.96875 -4.628906 2.867188 -4.671875 2.734375 -4.671875 C 2.472656 -4.671875 2.238281 -4.5 2.03125 -4.15625 C 1.820312 -3.8125 1.671875 -3.363281 1.578125 -2.8125 C 2.535156 -3.0625 3.050781 -3.484375 3.125 -4.078125 Z M 3.125 -4.078125 "/></g></g></g><g fill="#3d3b3a" fill-opacity="1"><g transform="translate(208.336668, 262.357212)"><g/></g></g><g fill="#3d3b3a" fill-opacity="1"><g transform="translate(215.052326, 262.357212)"><g><path d="M 5.21875 -0.96875 C 5.226562 -0.976562 5.238281 -0.984375 5.25 -0.984375 C 5.28125 -0.984375 5.300781 -0.96875 5.3125 -0.9375 C 5.332031 -0.90625 5.335938 -0.882812 5.328125 -0.875 C 4.785156 -0.21875 4.3125 0.109375 3.90625 0.109375 C 3.6875 0.109375 3.523438 0.0507812 3.421875 -0.0625 C 3.328125 -0.1875 3.28125 -0.378906 3.28125 -0.640625 C 3.28125 -0.785156 3.296875 -0.945312 3.328125 -1.125 L 3.46875 -1.96875 C 3.15625 -1.300781 2.773438 -0.78125 2.328125 -0.40625 C 1.890625 -0.03125 1.460938 0.15625 1.046875 0.15625 C 0.785156 0.15625 0.578125 0.078125 0.421875 -0.078125 C 0.273438 -0.234375 0.203125 -0.472656 0.203125 -0.796875 C 0.203125 -1.359375 0.390625 -1.972656 0.765625 -2.640625 C 1.140625 -3.304688 1.597656 -3.867188 2.140625 -4.328125 C 2.691406 -4.785156 3.210938 -5.015625 3.703125 -5.015625 C 3.847656 -5.015625 4.003906 -4.988281 4.171875 -4.9375 C 4.335938 -4.882812 4.476562 -4.800781 4.59375 -4.6875 C 4.75 -4.8125 4.878906 -4.957031 4.984375 -5.125 C 4.992188 -5.132812 5.007812 -5.140625 5.03125 -5.140625 C 5.050781 -5.140625 5.070312 -5.128906 5.09375 -5.109375 C 5.125 -5.097656 5.132812 -5.085938 5.125 -5.078125 L 4.40625 -1.125 C 4.375 -1.007812 4.359375 -0.910156 4.359375 -0.828125 C 4.359375 -0.628906 4.421875 -0.53125 4.546875 -0.53125 C 4.703125 -0.53125 4.925781 -0.675781 5.21875 -0.96875 Z M 1.84375 -0.75 C 2.09375 -0.75 2.347656 -0.878906 2.609375 -1.140625 C 2.878906 -1.410156 3.113281 -1.734375 3.3125 -2.109375 C 3.507812 -2.492188 3.640625 -2.851562 3.703125 -3.1875 C 3.722656 -3.320312 3.734375 -3.445312 3.734375 -3.5625 C 3.734375 -3.832031 3.671875 -4.039062 3.546875 -4.1875 C 3.429688 -4.332031 3.265625 -4.40625 3.046875 -4.40625 C 2.660156 -4.40625 2.316406 -4.195312 2.015625 -3.78125 C 1.722656 -3.363281 1.515625 -2.820312 1.390625 -2.15625 C 1.347656 -1.894531 1.328125 -1.695312 1.328125 -1.5625 C 1.328125 -1.28125 1.375 -1.070312 1.46875 -0.9375 C 1.5625 -0.8125 1.6875 -0.75 1.84375 -0.75 Z M 1.84375 -0.75 "/></g></g></g><g fill="#3d3b3a" fill-opacity="1"><g transform="translate(224.407522, 262.357212)"><g><path d="M 4.953125 -4.984375 C 4.992188 -4.984375 5.015625 -4.914062 5.015625 -4.78125 C 5.015625 -4.632812 4.992188 -4.484375 4.953125 -4.328125 C 4.921875 -4.179688 4.890625 -4.125 4.859375 -4.15625 C 4.585938 -4.332031 4.273438 -4.429688 3.921875 -4.453125 C 4.117188 -4.210938 4.21875 -3.910156 4.21875 -3.546875 C 4.21875 -3.378906 4.195312 -3.226562 4.15625 -3.09375 C 4.039062 -2.53125 3.769531 -2.078125 3.34375 -1.734375 C 2.914062 -1.398438 2.445312 -1.234375 1.9375 -1.234375 C 1.832031 -1.234375 1.753906 -1.238281 1.703125 -1.25 C 1.648438 -1.144531 1.625 -1.0625 1.625 -1 C 1.59375 -0.789062 1.660156 -0.617188 1.828125 -0.484375 C 2.003906 -0.347656 2.285156 -0.179688 2.671875 0.015625 C 3.003906 0.171875 3.269531 0.304688 3.46875 0.421875 C 3.664062 0.546875 3.832031 0.703125 3.96875 0.890625 C 4.113281 1.085938 4.1875 1.320312 4.1875 1.59375 C 4.1875 1.976562 4.054688 2.316406 3.796875 2.609375 C 3.535156 2.910156 3.191406 3.140625 2.765625 3.296875 C 2.335938 3.453125 1.878906 3.53125 1.390625 3.53125 C 0.773438 3.53125 0.289062 3.410156 -0.0625 3.171875 C -0.414062 2.929688 -0.59375 2.632812 -0.59375 2.28125 C -0.59375 1.945312 -0.441406 1.632812 -0.140625 1.34375 C 0.148438 1.050781 0.566406 0.757812 1.109375 0.46875 C 0.804688 0.257812 0.65625 0.046875 0.65625 -0.171875 C 0.65625 -0.347656 0.722656 -0.523438 0.859375 -0.703125 C 1.003906 -0.878906 1.210938 -1.078125 1.484375 -1.296875 C 1.191406 -1.378906 0.960938 -1.539062 0.796875 -1.78125 C 0.640625 -2.03125 0.5625 -2.320312 0.5625 -2.65625 C 0.5625 -2.75 0.578125 -2.894531 0.609375 -3.09375 C 0.710938 -3.625 0.972656 -4.0625 1.390625 -4.40625 C 1.816406 -4.757812 2.296875 -4.9375 2.828125 -4.9375 C 3.191406 -4.9375 3.484375 -4.847656 3.703125 -4.671875 C 4.148438 -4.878906 4.566406 -4.984375 4.953125 -4.984375 Z M 3.0625 -2.984375 C 3.082031 -3.148438 3.09375 -3.285156 3.09375 -3.390625 C 3.09375 -3.734375 3.046875 -4.03125 2.953125 -4.28125 C 2.859375 -4.539062 2.71875 -4.671875 2.53125 -4.671875 C 2.34375 -4.671875 2.171875 -4.523438 2.015625 -4.234375 C 1.859375 -3.953125 1.753906 -3.601562 1.703125 -3.1875 C 1.691406 -2.976562 1.6875 -2.832031 1.6875 -2.75 C 1.6875 -2.382812 1.738281 -2.085938 1.84375 -1.859375 C 1.957031 -1.628906 2.097656 -1.515625 2.265625 -1.515625 C 2.453125 -1.515625 2.617188 -1.648438 2.765625 -1.921875 C 2.921875 -2.191406 3.019531 -2.546875 3.0625 -2.984375 Z M 3.15625 2.1875 C 3.15625 1.875 3.035156 1.617188 2.796875 1.421875 C 2.566406 1.234375 2.226562 1.03125 1.78125 0.8125 C 1.601562 0.738281 1.4375 0.65625 1.28125 0.5625 C 0.789062 0.957031 0.546875 1.40625 0.546875 1.90625 C 0.546875 2.257812 0.6875 2.550781 0.96875 2.78125 C 1.25 3.019531 1.601562 3.140625 2.03125 3.140625 C 2.414062 3.140625 2.695312 3.046875 2.875 2.859375 C 3.0625 2.671875 3.15625 2.445312 3.15625 2.1875 Z M 3.15625 2.1875 "/></g></g></g><g fill="#3d3b3a" fill-opacity="1"><g transform="translate(233.058841, 262.357212)"><g><path d="M 3.390625 -5.015625 C 3.710938 -5.015625 3.960938 -4.957031 4.140625 -4.84375 C 4.316406 -4.738281 4.40625 -4.59375 4.40625 -4.40625 C 4.40625 -4.03125 4.125 -3.675781 3.5625 -3.34375 C 3.007812 -3.007812 2.335938 -2.765625 1.546875 -2.609375 C 1.523438 -2.429688 1.515625 -2.253906 1.515625 -2.078125 C 1.515625 -1.578125 1.617188 -1.171875 1.828125 -0.859375 C 2.035156 -0.554688 2.34375 -0.40625 2.75 -0.40625 C 2.925781 -0.40625 3.117188 -0.4375 3.328125 -0.5 C 3.535156 -0.5625 3.722656 -0.660156 3.890625 -0.796875 L 3.90625 -0.796875 C 3.925781 -0.796875 3.945312 -0.78125 3.96875 -0.75 C 3.988281 -0.726562 3.988281 -0.707031 3.96875 -0.6875 C 3.664062 -0.394531 3.347656 -0.179688 3.015625 -0.046875 C 2.679688 0.0859375 2.347656 0.15625 2.015625 0.15625 C 1.429688 0.15625 0.992188 -0.0195312 0.703125 -0.375 C 0.421875 -0.726562 0.28125 -1.171875 0.28125 -1.703125 C 0.28125 -1.890625 0.300781 -2.097656 0.34375 -2.328125 C 0.425781 -2.773438 0.609375 -3.203125 0.890625 -3.609375 C 1.179688 -4.023438 1.546875 -4.363281 1.984375 -4.625 C 2.421875 -4.882812 2.890625 -5.015625 3.390625 -5.015625 Z M 3.125 -4.078125 C 3.132812 -4.109375 3.140625 -4.15625 3.140625 -4.21875 C 3.140625 -4.363281 3.101562 -4.472656 3.03125 -4.546875 C 2.96875 -4.628906 2.867188 -4.671875 2.734375 -4.671875 C 2.472656 -4.671875 2.238281 -4.5 2.03125 -4.15625 C 1.820312 -3.8125 1.671875 -3.363281 1.578125 -2.8125 C 2.535156 -3.0625 3.050781 -3.484375 3.125 -4.078125 Z M 3.125 -4.078125 "/></g></g></g><g fill="#3d3b3a" fill-opacity="1"><g transform="translate(241.320513, 262.357212)"><g><path d="M 5.609375 -0.96875 C 5.628906 -0.988281 5.640625 -1 5.640625 -1 C 5.671875 -1 5.691406 -0.984375 5.703125 -0.953125 C 5.722656 -0.921875 5.722656 -0.894531 5.703125 -0.875 C 5.421875 -0.53125 5.164062 -0.28125 4.9375 -0.125 C 4.71875 0.03125 4.492188 0.109375 4.265625 0.109375 C 3.859375 0.109375 3.65625 -0.125 3.65625 -0.59375 C 3.65625 -0.71875 3.675781 -0.894531 3.71875 -1.125 L 4.09375 -3.125 C 4.132812 -3.351562 4.15625 -3.539062 4.15625 -3.6875 C 4.15625 -4.09375 4.019531 -4.296875 3.75 -4.296875 C 3.507812 -4.296875 3.265625 -4.144531 3.015625 -3.84375 C 2.765625 -3.539062 2.523438 -3.09375 2.296875 -2.5 C 2.078125 -1.914062 1.894531 -1.210938 1.75 -0.390625 L 1.703125 -0.15625 C 1.660156 0.0078125 1.425781 0.09375 1 0.09375 C 0.726562 0.09375 0.59375 0.0625 0.59375 0 L 0.640625 -0.265625 C 0.722656 -0.660156 0.769531 -0.882812 0.78125 -0.9375 L 1.296875 -3.734375 C 1.316406 -3.804688 1.328125 -3.898438 1.328125 -4.015625 C 1.328125 -4.242188 1.253906 -4.359375 1.109375 -4.359375 C 0.929688 -4.359375 0.6875 -4.1875 0.375 -3.84375 C 0.363281 -3.84375 0.351562 -3.84375 0.34375 -3.84375 C 0.3125 -3.84375 0.285156 -3.851562 0.265625 -3.875 C 0.253906 -3.90625 0.257812 -3.9375 0.28125 -3.96875 C 0.582031 -4.3125 0.851562 -4.5625 1.09375 -4.71875 C 1.332031 -4.882812 1.570312 -4.96875 1.8125 -4.96875 C 2.207031 -4.96875 2.40625 -4.742188 2.40625 -4.296875 C 2.40625 -4.171875 2.390625 -4.035156 2.359375 -3.890625 L 2.15625 -2.734375 C 2.457031 -3.472656 2.796875 -4.035156 3.171875 -4.421875 C 3.554688 -4.816406 3.960938 -5.015625 4.390625 -5.015625 C 4.960938 -5.015625 5.25 -4.664062 5.25 -3.96875 C 5.25 -3.8125 5.226562 -3.609375 5.1875 -3.359375 L 4.78125 -1.125 C 4.75 -1 4.734375 -0.894531 4.734375 -0.8125 C 4.734375 -0.625 4.800781 -0.53125 4.9375 -0.53125 C 5.019531 -0.53125 5.113281 -0.566406 5.21875 -0.640625 C 5.332031 -0.710938 5.460938 -0.820312 5.609375 -0.96875 Z M 5.609375 -0.96875 "/></g></g></g><g fill="#3d3b3a" fill-opacity="1"><g transform="translate(251.065362, 262.357212)"><g><path d="M 3.828125 -4.859375 C 3.878906 -4.859375 3.90625 -4.816406 3.90625 -4.734375 C 3.90625 -4.671875 3.859375 -4.570312 3.765625 -4.4375 C 3.671875 -4.300781 3.582031 -4.234375 3.5 -4.234375 C 3.46875 -4.234375 3.328125 -4.253906 3.078125 -4.296875 C 2.835938 -4.335938 2.5625 -4.367188 2.25 -4.390625 L 1.71875 -1.390625 C 1.707031 -1.253906 1.703125 -1.164062 1.703125 -1.125 C 1.703125 -0.914062 1.753906 -0.765625 1.859375 -0.671875 C 1.960938 -0.585938 2.125 -0.546875 2.34375 -0.546875 C 2.65625 -0.546875 3.003906 -0.695312 3.390625 -1 L 3.40625 -1 C 3.4375 -1 3.460938 -0.988281 3.484375 -0.96875 C 3.515625 -0.945312 3.519531 -0.921875 3.5 -0.890625 C 3.113281 -0.523438 2.769531 -0.257812 2.46875 -0.09375 C 2.175781 0.0703125 1.878906 0.15625 1.578125 0.15625 C 0.898438 0.15625 0.5625 -0.148438 0.5625 -0.765625 C 0.5625 -0.890625 0.578125 -1.03125 0.609375 -1.1875 L 1.09375 -3.84375 C 1.113281 -3.988281 1.125 -4.109375 1.125 -4.203125 C 1.125 -4.328125 1.09375 -4.410156 1.03125 -4.453125 C 0.96875 -4.492188 0.847656 -4.515625 0.671875 -4.515625 C 0.640625 -4.515625 0.625 -4.546875 0.625 -4.609375 C 0.625 -4.679688 0.640625 -4.71875 0.671875 -4.71875 C 1.335938 -4.71875 1.867188 -5.085938 2.265625 -5.828125 C 2.285156 -5.847656 2.316406 -5.859375 2.359375 -5.859375 C 2.398438 -5.859375 2.4375 -5.847656 2.46875 -5.828125 C 2.5 -5.816406 2.507812 -5.800781 2.5 -5.78125 L 2.3125 -4.75 C 2.550781 -4.757812 2.753906 -4.769531 2.921875 -4.78125 C 3.085938 -4.800781 3.226562 -4.8125 3.34375 -4.8125 C 3.5625 -4.84375 3.722656 -4.859375 3.828125 -4.859375 Z M 3.828125 -4.859375 "/></g></g></g></svg>